<mxfile host="app.diagrams.net" modified="2023-05-25T19:42:55.211Z" agent="Mozilla/5.0 (Macintosh; Intel Mac OS X 10_15_7) AppleWebKit/537.36 (KHTML, like Gecko) Chrome/113.0.0.0 Safari/537.36" version="21.3.4" etag="h_qQzp2zE7KBcL-O5hh-" type="github">
  <diagram name="Page-1" id="djZeXG_U9e7K8oO2Jbuu">
    <mxGraphModel>
      <root>
        <mxCell id="0" />
        <mxCell id="1" parent="0" />
      </root>
    </mxGraphModel>
  </diagram>
</mxfile>
